<svg width="59" height="57" viewBox="0 0 59 57" fill="none" xmlns="http://www.w3.org/2000/svg">
<g filter="url(#filter0_ii_7586_5334)">
<path fill-rule="evenodd" clip-rule="evenodd" d="M25.5342 5.17993C16.6976 5.17993 9.53418 12.3434 9.53418 21.1799V35.8466C9.53418 44.6832 16.6976 51.8466 25.5342 51.8466H32.6842C41.5207 51.8466 48.6842 44.6831 48.6842 35.8466V21.1799C48.6842 19.3776 48.3862 17.6449 47.8368 16.0284L37.3012 5.85616C35.8394 5.41631 34.2894 5.17993 32.6842 5.17993H25.5342Z" fill="#FA4E4E"/>
</g>
<path d="M36.959 36.6084C35.3281 36.4914 33.7578 35.9066 32.4894 34.854C30.0129 35.3802 27.657 36.1403 25.3013 37.0762C23.429 40.2924 21.6772 41.9299 20.1671 41.9299C19.865 41.9299 19.5028 41.8715 19.2612 41.6959C18.5966 41.4037 18.2344 40.7603 18.2344 40.1171C18.2344 39.5907 18.3552 38.1289 24.0933 35.7311C25.4224 33.3919 26.4489 30.9944 27.2948 28.4799C26.5698 27.0764 24.9995 23.626 26.0864 21.8719C26.4489 21.2285 27.1739 20.8776 27.9593 20.9363C28.5632 20.9363 29.1671 21.2285 29.5296 21.6964C30.315 22.749 30.2546 24.9712 29.2275 28.246C30.1942 29.9979 31.4603 31.5795 32.9724 32.9244C34.2412 32.6901 35.5093 32.5149 36.7778 32.5149C39.6167 32.5732 40.0397 33.8597 39.9792 34.6201C39.9792 36.6084 37.9858 36.6084 36.959 36.6084ZM20.0466 40.2338L20.2278 40.1755C21.0734 39.8832 21.7376 39.2984 22.221 38.5381C21.3147 38.8889 20.59 39.4737 20.0466 40.2341V40.2338ZM28.0799 22.6906H27.8986C27.8382 22.6906 27.7174 22.6906 27.657 22.749C27.4153 23.743 27.5965 24.7956 28.0195 25.7313C28.382 24.7373 28.382 23.6846 28.0799 22.6906ZM28.5028 31.17L28.4424 31.2866L28.382 31.2283C27.8382 32.5735 27.234 33.9184 26.5698 35.2049L26.6906 35.1466V35.2632C28.0338 34.793 29.4055 34.4024 30.798 34.0936L30.7376 34.0353H30.9189C30.0126 33.158 29.1671 32.164 28.5028 31.17ZM36.7173 34.2692C36.1736 34.2692 35.6906 34.2692 35.1468 34.3859C35.751 34.6784 36.3551 34.7954 36.959 34.854C37.3819 34.9124 37.8048 34.854 38.167 34.7371C38.167 34.5615 37.9254 34.2692 36.7173 34.2692Z" fill="white"/>
<path d="M47.5512 15.7522L37.7344 15.7522L48.6849 26.3251L48.6849 16.8459L47.5512 15.7522Z" fill="url(#paint0_linear_7586_5334)"/>
<path d="M48.2679 16.8459L48.6846 16.8459L36.6012 5.17928C36.6012 11.6226 41.8246 16.8459 48.2679 16.8459Z" fill="#FDB8B8"/>
<defs>
<filter id="filter0_ii_7586_5334" x="9.53418" y="4.17993" width="39.1504" height="48.6667" filterUnits="userSpaceOnUse" color-interpolation-filters="sRGB">
<feFlood flood-opacity="0" result="BackgroundImageFix"/>
<feBlend mode="normal" in="SourceGraphic" in2="BackgroundImageFix" result="shape"/>
<feColorMatrix in="SourceAlpha" type="matrix" values="0 0 0 0 0 0 0 0 0 0 0 0 0 0 0 0 0 0 127 0" result="hardAlpha"/>
<feOffset dy="-2"/>
<feGaussianBlur stdDeviation="0.5"/>
<feComposite in2="hardAlpha" operator="arithmetic" k2="-1" k3="1"/>
<feColorMatrix type="matrix" values="0 0 0 0 0 0 0 0 0 0 0 0 0 0 0 0 0 0 0.3 0"/>
<feBlend mode="normal" in2="shape" result="effect1_innerShadow_7586_5334"/>
<feColorMatrix in="SourceAlpha" type="matrix" values="0 0 0 0 0 0 0 0 0 0 0 0 0 0 0 0 0 0 127 0" result="hardAlpha"/>
<feOffset dy="2"/>
<feGaussianBlur stdDeviation="0.5"/>
<feComposite in2="hardAlpha" operator="arithmetic" k2="-1" k3="1"/>
<feColorMatrix type="matrix" values="0 0 0 0 1 0 0 0 0 1 0 0 0 0 1 0 0 0 0.3 0"/>
<feBlend mode="normal" in2="effect1_innerShadow_7586_5334" result="effect2_innerShadow_7586_5334"/>
</filter>
<linearGradient id="paint0_linear_7586_5334" x1="40.1888" y1="13.3824" x2="50.7552" y2="24.3262" gradientUnits="userSpaceOnUse">
<stop stop-opacity="0.2"/>
<stop offset="1" stop-opacity="0"/>
</linearGradient>
</defs>
</svg>
