<svg width="102" height="102" viewBox="0 0 102 102" fill="none" xmlns="http://www.w3.org/2000/svg">
<g clip-path="url(#clip0_127_4480)">
<rect width="102" height="102" rx="51" fill="white"/>
<rect width="102" height="102" fill="#E3F0DF"/>
<circle cx="51" cy="51" r="41" stroke="white" stroke-width="20"/>
<path d="M58.4607 68.2393C56.284 68.1733 49.8256 66.1123 48.5417 65.1613L58.4607 68.2393Z" fill="#EB8682"/>
<path d="M59.3565 78.3973C63.3724 84.0223 76.3576 85.692 78.5731 86.496C82.2069 87.873 82.825 91.596 82.8787 93.624C83.034 99.402 83.7118 109.314 81.6844 114.552" fill="#EB8682"/>
<path d="M59.3565 78.3973C56.92 74.0053 58.4607 68.2393 58.4607 68.2393C58.4607 68.2393 63.1814 68.4643 65.0744 67.4953C68.7142 65.9263 73.0377 60.1873 72.9929 51.9703C72.8897 44.5705 71.3342 37.264 68.4156 30.4693C65.782 23.6263 49.4404 17.2303 37.1297 29.1823C37.1297 29.1823 30.4921 35.2783 34.3469 45.4093" fill="#EB8682"/>
<path d="M15.2192 114.552C13.4665 108.909 14.1563 94.071 14.4101 91.977C14.6638 89.883 15.6432 85.635 20.8297 84.342C23.1228 83.763 37.482 81.4303 40.3962 77.3833" fill="#EB8682"/>
<path d="M41.1009 62.0833C41.1009 62.0833 36.2787 59.3323 34.3558 53.5963C32.4329 47.8603 34.3469 45.4093 34.3469 45.4093C35.8906 43.0963 42.0325 42.5293 42.0325 49.5073" fill="#EB8682"/>
<path d="M41.1009 62.0833C41.4682 69.3733 41.5607 72.7183 40.3962 77.3833L41.1009 62.0833Z" fill="#EB8682"/>
<path d="M59.3565 78.3973C63.3724 84.0223 76.3576 85.692 78.5731 86.496C82.2069 87.873 82.825 91.596 82.8787 93.624C83.034 99.402 83.7118 109.314 81.6844 114.552H15.2192C13.4665 108.909 14.1563 94.071 14.4101 91.977C14.6638 89.883 15.6432 85.635 20.8297 84.342C23.1228 83.763 37.482 81.4303 40.3962 77.3833C41.5607 72.7183 41.4682 69.3733 41.1009 62.0833C41.1009 62.0833 36.2787 59.3323 34.3558 53.5963C32.4329 47.8603 34.3469 45.4093 34.3469 45.4093C30.4921 35.2783 37.1297 29.1823 37.1297 29.1823C49.4404 17.2303 65.782 23.6263 68.4156 30.4693C71.3342 37.264 72.8897 44.5705 72.9929 51.9703C73.0377 60.1873 68.7142 65.9263 65.0744 67.4953C63.1814 68.4643 58.4607 68.2393 58.4607 68.2393C58.4607 68.2393 56.92 74.0053 59.3565 78.3973Z" fill="#EB8682"/>
<path opacity="0.4" d="M58.3918 68.0083C58.1027 70.05 57.6548 73.05 58.3918 75.45C55.6597 74.799 47.9473 69.4423 47.9473 65.0923C51.3217 66.4165 54.8211 67.3935 58.3918 68.0083Z" fill="#050504"/>
<path d="M37.8661 47.1C36.7016 47.418 35.9074 49.185 36.833 51.09" stroke="#050504" stroke-width="3" stroke-linecap="round"/>
<path d="M14.151 89.277C13.896 91.371 13.203 106.209 14.964 111.852H81.7439C83.7809 106.614 83.0999 96.702 82.9439 90.924C82.8899 88.896 82.2689 85.173 78.6179 83.796C76.5796 83.0598 66.1508 81.75 60.7508 77.4L50.1008 82.5L38.8508 76.2C33.9981 79.2161 22.5874 81.1428 20.601 81.642C15.39 82.935 14.406 87.183 14.151 89.277Z" fill="#A2BFF8" stroke="#050504" stroke-width="3" stroke-linecap="round" stroke-linejoin="round"/>
<path d="M45.6448 82.152C40.5448 80.751 38.9758 78.444 37.7578 76.668C38.1748 74.82 38.4 72.3 40.65 71.25C36.75 73.35 40.6468 74.787 47.7598 76.26L45.6448 82.152Z" fill="#E5ECF9"/>
<path d="M55.3258 81.408C60.4258 80.007 60.1528 79.188 60.8548 78.264C60.8548 76.059 60.6928 73.116 58.4728 72.243C61.7518 73.935 59.8618 75.423 52.8958 76.26L55.3258 81.408Z" fill="#E5ECF9"/>
<path d="M45.6448 82.152C40.5448 80.751 38.9758 78.444 37.7578 76.668C38.1748 74.82 38.4 72.3 40.65 71.25C36.75 73.35 40.6468 74.787 47.7598 76.26L45.6448 82.152Z" stroke="#050504" stroke-width="3" stroke-linecap="round" stroke-linejoin="round"/>
<path d="M55.3258 81.408C60.4258 80.007 60.1528 79.188 60.8548 78.264C60.8548 76.059 60.6928 73.116 58.4728 72.243C61.7518 73.935 59.8618 75.423 52.8958 76.26L55.3258 81.408Z" stroke="#050504" stroke-width="3" stroke-linecap="round" stroke-linejoin="round"/>
<path d="M41.55 74.25L41.1 71.1C40.3448 71.1571 39 72.0771 39 72.9C39 73.7229 40.8452 74.1929 41.55 74.25Z" fill="#050504"/>
<path d="M57.45 75.15L58.05 72.3C58.8052 72.3571 60 72.8271 60 73.65C60 74.4729 58.1548 75.0929 57.45 75.15Z" fill="#050504"/>
<g opacity="0.2">
<path d="M52.3509 76.2L54.9008 80.376L52.5428 81.381L51.1268 81.954L52.3509 76.2Z" fill="#050504"/>
<path d="M48.3009 76.2L49.5009 81.9L47.1848 80.82L46.0898 80.22L48.3009 76.2Z" fill="#050504"/>
</g>
<path d="M46.5621 55.0011C45.0398 52.1163 45.0457 51.5405 44.1927 48.3972C43.7899 46.896 43.2716 45.4271 43.4908 43.8261C43.9706 40.3214 45.7269 37.6805 49.0262 36.0677C51.6266 34.7927 54.4224 34.1758 57.2982 33.8497C60.0419 33.4969 62.8289 33.6907 65.4962 34.4196C66.826 34.7986 68.1232 35.3009 69.4382 35.7122C69.9772 35.8885 70.5903 36.0589 71.0464 35.6388C72.0149 34.7428 72.4828 31.8756 72.8234 30.536C73.552 28.0478 73.9429 25.6888 73.0218 23.5208C72.3821 22.0108 71.3189 20.8769 69.5952 20.5038C68.2001 20.1587 66.7357 20.2055 65.3659 20.6389C64.9868 20.7623 64.8476 20.6389 64.7735 20.307C64.655 19.7723 64.437 19.2642 64.1308 18.8088C61.9096 15.3188 56.9013 14.4933 53.6109 17.099C53.1963 17.4251 53.0689 17.3693 52.7994 16.9521C52.4095 16.3176 51.8817 15.7773 51.2546 15.3707C50.6275 14.9641 49.9168 14.7015 49.1743 14.602C47.7598 14.3909 46.3206 14.4018 44.9095 14.6343C42.1462 15.072 40.1086 16.3529 39.2822 19.0732C39.2737 19.1449 39.25 19.214 39.2127 19.276C39.1755 19.338 39.1255 19.3915 39.066 19.4331C39.0064 19.4747 38.9388 19.5034 38.8673 19.5173C38.7959 19.5312 38.7223 19.53 38.6514 19.5138C37.7046 19.4364 36.7525 19.5782 35.8704 19.928C31.7536 21.6084 28.9578 24.3962 28.0811 28.7411C27.7257 30.5037 27.6931 32.2663 28.5698 33.9173C28.7801 34.3198 28.6853 34.4578 28.3092 34.6664C24.222 36.9225 22.3058 41.7521 23.8252 45.9647C24.5774 48.0534 26.4581 50.0775 29.325 50.0246C29.7012 50.0246 29.7782 50.2156 29.8877 50.4947C30.6548 52.4923 30.0625 56.8665 31.0458 58.7848C32.3371 61.2965 32.8228 62.031 34.742 64.1108C35.5357 64.9775 36.4183 65.3887 37.8458 65.0186C38.9713 64.4311 40.0523 64.0021 40.7512 63.1238C40.9437 62.8447 40.9406 62.5032 40.9287 62.042C40.4025 61.7062 40.0696 61.4193 39.5959 61.0138C38.0292 59.8387 35.7608 57.1331 34.742 54.5508C34.0489 53.0468 33.0183 49.0816 33.6106 47.1281C34.2355 45.0717 35.2395 44.2697 36.0184 44.0171C36.7009 43.751 37.4306 43.6248 38.1636 43.646C38.8966 43.6672 39.6176 43.8354 40.2833 44.1404C41.7138 45.0218 41.8618 45.624 42.469 47.3719C43.1739 51.2614 43.2805 54.0228 44.1305 57.7449C44.5067 59.3959 44.9154 61.0498 45.0487 62.7389C45.1227 63.6908 45.5906 64.1667 46.3429 64.5868C47.5098 65.237 48.7034 65.8392 49.9236 66.3934C52.6987 67.6654 55.5745 68.5967 58.6754 68.5849C61.5364 68.5849 64.3974 68.6378 67.2643 68.6966C68.0521 68.6966 68.837 68.6966 69.6337 68.6966C70.0461 68.7182 70.4544 68.6064 70.7973 68.3781C71.1401 68.1497 71.3991 67.8172 71.5351 67.4304C71.7383 66.9241 71.893 66.3998 71.9971 65.8646C72.471 63.6203 72.9389 61.3749 73.4009 59.1285C73.6823 57.7743 73.9696 55.0158 73.7149 53.6292C73.6837 53.403 73.5719 53.1953 73.3997 53.0439C73.2274 52.8924 73.0062 52.8072 72.776 52.8037C72.1985 52.7361 71.8401 53.0975 71.4788 53.4265C70.2941 54.5457 69.0946 55.6709 67.6049 56.4405C65.5495 57.504 63.3253 58.0298 61.0566 58.3735C54.2121 59.0521 49.6037 58.4822 46.5621 55.0011Z" fill="#050504"/>
<path d="M58.8705 46.539C58.8705 47.3674 59.5421 48.039 60.3705 48.039C61.1989 48.039 61.8705 47.3674 61.8705 46.539H58.8705ZM63.4896 46.044C63.4896 46.8724 64.1612 47.544 64.9896 47.544C65.8181 47.544 66.4896 46.8724 66.4896 46.044H63.4896ZM50.8452 47.7265C51.6352 47.9757 52.4777 47.5373 52.727 46.7473C52.9762 45.9572 52.5378 45.1147 51.7478 44.8655L50.8452 47.7265ZM35.2206 43.947L35.8648 45.3016C35.881 45.2939 35.8971 45.2859 35.913 45.2776L35.2206 43.947ZM31.3572 48.9221C31.5086 49.7366 32.2916 50.2741 33.106 50.1227C33.9205 49.9713 34.4581 49.1883 34.3067 48.3739L31.3572 48.9221ZM58.8705 46.296C58.8705 48.578 57.3137 50.043 55.835 50.043V53.043C59.366 53.043 61.8705 49.8096 61.8705 46.296H58.8705ZM55.835 50.043C54.3562 50.043 52.7995 48.578 52.7995 46.296H49.7995C49.7995 49.8096 52.3039 53.043 55.835 53.043V50.043ZM52.7995 46.296C52.7995 44.0139 54.3562 42.549 55.835 42.549V39.549C52.3039 39.549 49.7995 42.7823 49.7995 46.296H52.7995ZM55.835 42.549C57.3137 42.549 58.8705 44.0139 58.8705 46.296H61.8705C61.8705 42.7823 59.366 39.549 55.835 39.549V42.549ZM72.5189 45.282C72.5189 47.564 70.9621 49.029 69.4834 49.029V52.029C73.0144 52.029 75.5189 48.7956 75.5189 45.282H72.5189ZM69.4834 49.029C68.0046 49.029 66.4478 47.564 66.4478 45.282H63.4478C63.4478 48.7956 65.9523 52.029 69.4834 52.029V49.029ZM66.4478 45.282C66.4478 42.9999 68.0046 41.535 69.4834 41.535V38.535C65.9523 38.535 63.4478 41.7683 63.4478 45.282H66.4478ZM69.4834 41.535C70.9621 41.535 72.5189 42.9999 72.5189 45.282H75.5189C75.5189 41.7683 73.0144 38.535 69.4834 38.535V41.535ZM61.8705 46.539C61.8705 46.6608 61.7706 46.6869 61.8972 46.6064C62.0569 46.5048 62.3674 46.3991 62.771 46.3746C63.1761 46.35 63.4957 46.418 63.6494 46.4876C63.8142 46.5622 63.4896 46.462 63.4896 46.044H66.4896C66.4896 44.7904 65.5877 44.0719 64.8864 43.7545C64.174 43.4321 63.3389 43.3346 62.5892 43.3801C61.838 43.4257 60.9936 43.6258 60.2873 44.075C59.5478 44.5453 58.8705 45.3672 58.8705 46.539H61.8705ZM51.2965 46.296C51.7478 44.8655 51.7476 44.8654 51.7474 44.8653C51.7472 44.8653 51.747 44.8652 51.7467 44.8651C51.7461 44.8649 51.7453 44.8647 51.7444 44.8644C51.7424 44.8638 51.7398 44.8629 51.7363 44.8619C51.7294 44.8597 51.7194 44.8566 51.7065 44.8525C51.6806 44.8445 51.6428 44.8327 51.5939 44.8176C51.496 44.7874 51.3532 44.7437 51.1711 44.689C50.807 44.5796 50.2851 44.4257 49.6492 44.2467C48.3793 43.8892 46.6463 43.4289 44.8042 43.0213C42.9699 42.6154 40.9888 42.2532 39.2335 42.1043C38.3561 42.0299 37.501 42.0057 36.73 42.0658C35.9813 42.1242 35.1939 42.2699 34.5282 42.6163L35.913 45.2776C36.0617 45.2002 36.3875 45.1016 36.9633 45.0567C37.5168 45.0136 38.1976 45.0272 38.98 45.0936C40.5444 45.2262 42.3786 45.5571 44.1561 45.9504C45.9257 46.342 47.6009 46.7867 48.8362 47.1345C49.453 47.3081 49.9579 47.4569 50.3075 47.562C50.4823 47.6146 50.6181 47.6561 50.7096 47.6843C50.7553 47.6984 50.7899 47.7092 50.8128 47.7163C50.8242 47.7199 50.8326 47.7225 50.8381 47.7242C50.8408 47.7251 50.8427 47.7257 50.8439 47.7261C50.8445 47.7263 50.8449 47.7264 50.8451 47.7265C50.8452 47.7265 50.8453 47.7265 50.8453 47.7265C50.8453 47.7265 50.8452 47.7265 51.2965 46.296ZM34.5764 42.5924C33.4172 43.1436 32.4738 44.0643 31.892 45.2092L34.5666 46.5682C34.8491 46.0122 35.306 45.5673 35.8648 45.3016L34.5764 42.5924ZM31.892 45.2092C31.3103 46.354 31.1225 47.6594 31.3572 48.9221L34.3067 48.3739C34.1924 47.7593 34.284 47.1242 34.5666 46.5682L31.892 45.2092Z" fill="white"/>
<path d="M64.1844 47.4161C63.852 46.6573 62.9674 46.3116 62.2086 46.644C61.4498 46.9765 61.1041 47.8611 61.4365 48.6199L64.1844 47.4161ZM62.9268 54.6196C62.1705 54.9578 61.8315 55.845 62.1697 56.6012C62.5078 57.3575 63.395 57.6965 64.1513 57.3584L62.9268 54.6196ZM48.4749 40.5566C47.9411 41.1902 48.0221 42.1365 48.6557 42.6702C49.2893 43.2039 50.2355 43.123 50.7693 42.4894L48.4749 40.5566ZM56.1581 38.703L56.4111 37.2244L56.4006 37.2227L56.1581 38.703ZM56.6183 40.3731C57.3949 40.6615 58.2582 40.2658 58.5466 39.4892C58.835 38.7126 58.4393 37.8492 57.6627 37.5608L56.6183 40.3731ZM63.1294 38.5416C62.5184 39.101 62.4765 40.0498 63.0359 40.6609C63.5953 41.2719 64.5442 41.3138 65.1552 40.7544L63.1294 38.5416ZM70.1857 38.229L70.8167 36.8681L70.815 36.8674L70.1857 38.229ZM70.0677 39.8975C70.729 40.3964 71.6696 40.2647 72.1685 39.6033C72.6674 38.9419 72.5357 38.0014 71.8743 37.5025L70.0677 39.8975ZM62.8105 48.018C61.4365 48.6199 61.4365 48.6199 61.4365 48.6199C61.4366 48.6199 61.4366 48.62 61.4366 48.62C61.4367 48.6202 61.4368 48.6204 61.4369 48.6207C61.4372 48.6213 61.4376 48.6223 61.4382 48.6236C61.4393 48.6263 61.4411 48.6303 61.4434 48.6356C61.4481 48.6463 61.4551 48.6624 61.4643 48.6834C61.4827 48.7255 61.5097 48.7875 61.5442 48.8669C61.6131 49.0256 61.7118 49.2535 61.8303 49.5292C62.0676 50.0812 62.3831 50.8224 62.6981 51.5829C63.0143 52.3463 63.3247 53.117 63.5542 53.7317C63.6696 54.0409 63.7583 54.2938 63.816 54.479C63.8451 54.5723 63.8611 54.6318 63.8685 54.6631C63.8826 54.7233 63.8574 54.6445 63.8574 54.504H66.8574C66.8574 54.2795 66.8123 54.0765 66.7892 53.9777C66.7592 53.85 66.7205 53.7157 66.68 53.5857C66.5984 53.3243 66.4881 53.0128 66.3647 52.6824C66.1167 52.018 65.7904 51.2092 65.4698 50.4351C65.1481 49.6581 64.8269 48.9038 64.5866 48.3446C64.4663 48.0648 64.366 47.8332 64.2957 47.6714C64.2605 47.5905 64.2328 47.5269 64.2139 47.4835C64.2044 47.4618 64.1971 47.4451 64.1922 47.4337C64.1897 47.4281 64.1878 47.4237 64.1865 47.4208C64.1858 47.4193 64.1853 47.4182 64.185 47.4174C64.1848 47.417 64.1847 47.4167 64.1846 47.4165C64.1846 47.4164 64.1845 47.4163 64.1845 47.4162C64.1845 47.4162 64.1844 47.4161 62.8105 48.018ZM63.8574 54.504C63.8574 54.2483 63.9427 54.0762 63.9787 54.0135C64.0153 53.9497 64.0388 53.9326 64.0119 53.9596C63.955 54.0165 63.8339 54.1123 63.647 54.2304C63.4715 54.3413 63.2878 54.4409 63.1431 54.5145C63.0722 54.5506 63.014 54.5787 62.9753 54.597C62.9559 54.6062 62.9417 54.6128 62.9333 54.6167C62.9291 54.6186 62.9263 54.6198 62.9252 54.6203C62.9247 54.6206 62.9245 54.6207 62.9248 54.6205C62.9249 54.6205 62.9251 54.6204 62.9255 54.6202C62.9256 54.6202 62.9258 54.6201 62.9261 54.62C62.9262 54.6199 62.9263 54.6198 62.9264 54.6198C62.9266 54.6197 62.9268 54.6196 63.539 55.989C64.1513 57.3584 64.1515 57.3583 64.1517 57.3582C64.1518 57.3581 64.152 57.358 64.1522 57.358C64.1525 57.3578 64.1529 57.3576 64.1533 57.3575C64.1541 57.3571 64.1549 57.3567 64.1559 57.3563C64.1579 57.3554 64.1604 57.3543 64.1633 57.353C64.169 57.3503 64.1765 57.3469 64.1857 57.3427C64.2039 57.3344 64.2287 57.3229 64.2591 57.3085C64.3198 57.2797 64.4037 57.2391 64.5033 57.1884C64.6994 57.0886 64.9704 56.9429 65.2495 56.7666C65.5172 56.5974 65.8506 56.3639 66.1347 56.0794C66.3583 55.8555 66.8574 55.3046 66.8574 54.504H63.8574ZM50.7693 42.4894C52.2361 40.7482 54.2434 39.9093 55.9157 40.1832L56.4006 37.2227C53.4209 36.7346 50.4299 38.2358 48.4749 40.5566L50.7693 42.4894ZM55.9051 40.1815C56.1482 40.2231 56.3869 40.2872 56.6183 40.3731L57.6627 37.5608C57.2568 37.4101 56.8378 37.2975 56.4111 37.2245L55.9051 40.1815ZM65.1552 40.7544C66.6879 39.3512 68.3795 39.0467 69.5564 39.5906L70.815 36.8674C68.1879 35.6533 65.2276 36.6208 63.1294 38.5416L65.1552 40.7544ZM69.5547 39.5898C69.7359 39.6738 69.9079 39.7769 70.0677 39.8975L71.8743 37.5025C71.5452 37.2542 71.1906 37.0415 70.8167 36.8681L69.5547 39.5898Z" fill="#050504"/>
<path d="M57.6836 59.4336C58.5739 61.5158 61.6544 62.0161 63.0581 61.7799" stroke="white" stroke-width="3" stroke-miterlimit="10" stroke-linecap="round"/>
<path d="M56.0356 49.272C56.9656 49.272 57.7196 48.2378 57.7196 46.962C57.7196 45.6862 56.9656 44.652 56.0356 44.652C55.1055 44.652 54.3516 45.6862 54.3516 46.962C54.3516 48.2378 55.1055 49.272 56.0356 49.272Z" fill="#050504"/>
<path d="M57.1431 46.128C56.6922 44.412 54.4379 44.145 52.8076 45.573" stroke="#050504" stroke-width="3" stroke-linecap="round"/>
<path d="M69.2094 48.438C70.1395 48.438 70.8934 47.4038 70.8934 46.128C70.8934 44.8522 70.1395 43.818 69.2094 43.818C68.2794 43.818 67.5254 44.8522 67.5254 46.128C67.5254 47.4038 68.2794 48.438 69.2094 48.438Z" fill="#050504"/>
<path d="M70.3169 45.294C69.866 43.578 67.6117 43.311 65.9814 44.739" stroke="#050504" stroke-width="3" stroke-linecap="round"/>
</g>
<rect x="1.5" y="1.5" width="99" height="99" rx="49.5" stroke="#050504" stroke-width="3"/>
<defs>
<clipPath id="clip0_127_4480">
<rect width="102" height="102" rx="51" fill="white"/>
</clipPath>
</defs>
</svg>
