<svg width="103" height="102" viewBox="0 0 103 102" fill="none" xmlns="http://www.w3.org/2000/svg">
<g clip-path="url(#clip0_7587_5028)">
<rect x="0.65918" width="102" height="102" rx="51" fill="white"/>
<rect x="0.65918" width="340" height="340" fill="#8CB2A5"/>
<circle cx="170.659" cy="170" r="160" stroke="white" stroke-width="20"/>
<path d="M59.1199 68.2393C56.9432 68.1733 50.4848 66.1123 49.2009 65.1613L59.1199 68.2393Z" fill="#F1CF73"/>
<path d="M60.0156 78.3973C64.0316 84.0223 77.0168 85.692 79.2323 86.496C82.8661 87.873 83.4842 91.596 83.5379 93.624C83.6932 99.402 84.371 109.314 82.3436 114.552" fill="#F1CF73"/>
<path d="M60.0156 78.3973C57.5792 74.0053 59.1199 68.2393 59.1199 68.2393C59.1199 68.2393 63.8405 68.4643 65.7336 67.4953C69.3733 65.9263 73.6969 60.1873 73.6521 51.9703C73.5489 44.5705 71.9934 37.264 69.0747 30.4693C66.4412 23.6263 50.0996 17.2303 37.7889 29.1823C37.7889 29.1823 31.1513 35.2783 35.0061 45.4093" fill="#F1CF73"/>
<path d="M15.8784 114.552C14.1257 108.909 14.8154 94.071 15.0692 91.977C15.323 89.883 16.3024 85.635 21.4888 84.342C23.782 83.763 38.1412 81.4303 41.0554 77.3833" fill="#F1CF73"/>
<path d="M41.7601 62.0833C41.7601 62.0833 36.9379 59.3323 35.015 53.5963C33.0921 47.8603 35.0061 45.4093 35.0061 45.4093C36.5498 43.0963 42.6917 42.5293 42.6917 49.5073" fill="#F1CF73"/>
<path d="M41.7601 62.0833C42.1273 69.3733 42.2199 72.7183 41.0554 77.3833L41.7601 62.0833Z" fill="#F1CF73"/>
<path d="M60.0156 78.3973C64.0316 84.0223 77.0168 85.692 79.2323 86.496C82.8661 87.873 83.4842 91.596 83.5379 93.624C83.6932 99.402 84.371 109.314 82.3436 114.552H15.8784C14.1257 108.909 14.8154 94.071 15.0692 91.977C15.323 89.883 16.3024 85.635 21.4888 84.342C23.782 83.763 38.1412 81.4303 41.0554 77.3833C42.2199 72.7183 42.1273 69.3733 41.7601 62.0833C41.7601 62.0833 36.9379 59.3323 35.015 53.5963C33.0921 47.8603 35.0061 45.4093 35.0061 45.4093C31.1513 35.2783 37.7889 29.1823 37.7889 29.1823C50.0996 17.2303 66.4412 23.6263 69.0747 30.4693C71.9934 37.264 73.5489 44.5705 73.6521 51.9703C73.6969 60.1873 69.3733 65.9263 65.7336 67.4953C63.8405 68.4643 59.1199 68.2393 59.1199 68.2393C59.1199 68.2393 57.5792 74.0053 60.0156 78.3973Z" fill="#F1CF73"/>
<path opacity="0.4" d="M59.051 68.0083C58.7619 70.05 58.314 73.05 59.051 75.45C56.3189 74.799 48.6064 69.4423 48.6064 65.0923C51.9809 66.4165 55.4803 67.3935 59.051 68.0083Z" fill="#050504"/>
<path d="M38.5253 47.1C37.3608 47.418 36.5666 49.185 37.4922 51.09" stroke="#050504" stroke-width="3" stroke-linecap="round"/>
<path d="M15.6231 112.152C13.8621 106.509 14.5551 91.671 14.8101 89.577C15.0651 87.483 16.0491 83.235 21.2601 81.942C23.5641 81.363 37.9041 79.197 40.8321 75.15" fill="#A2BFF8"/>
<path d="M15.6231 112.152C13.8621 106.509 14.5551 91.671 14.8101 89.577C15.0651 87.483 16.0491 83.235 21.2601 81.942C23.5641 81.363 37.9041 79.197 40.8321 75.15C40.8321 75.15 45.7818 77.55 50.2818 77.25L60.0321 76.05C64.0671 81.675 77.051 83.292 79.277 84.096C82.928 85.473 83.549 89.196 83.603 91.224C83.759 97.002 84.44 106.914 82.403 112.152H19.2318H15.6231Z" fill="#A2BFF8"/>
<path d="M15.6231 112.152C13.8621 106.509 14.5551 91.671 14.8101 89.577C15.0651 87.483 16.0491 83.235 21.2601 81.942C23.5641 81.363 37.9041 79.197 40.8321 75.15C40.8321 75.15 45.7818 77.55 50.2818 77.25L60.0321 76.05C64.0671 81.675 77.051 83.292 79.277 84.096C82.928 85.473 83.549 89.196 83.603 91.224C83.759 97.002 84.44 106.914 82.403 112.152H19.2318H15.6231Z" stroke="#050504" stroke-width="3" stroke-linecap="round" stroke-linejoin="round"/>
<path d="M50.6094 79.2C52.0588 91.9703 52.1171 99.13 50.6094 111.9" stroke="#050504" stroke-width="3" stroke-linecap="round"/>
<path d="M58.8311 72.9C58.8311 75.495 54.7063 76.839 49.9963 76.839C45.2863 76.839 41.2633 75.495 41.2633 72.9C33.3073 78.81 37.4143 82.782 41.7403 82.971C46.1863 83.166 50.7013 78.882 50.7013 78.882C50.7013 78.882 53.9293 83.427 59.6053 82.977C65.6053 82.5 66.655 77.277 59.128 73.05" fill="#E5ECF9"/>
<path d="M58.8311 72.9C58.8311 75.495 54.7063 76.839 49.9963 76.839C45.2863 76.839 41.2633 75.495 41.2633 72.9C33.3073 78.81 37.4143 82.782 41.7403 82.971C46.1863 83.166 50.7013 78.882 50.7013 78.882C50.7013 78.882 53.9293 83.427 59.6053 82.977C65.6053 82.5 66.655 77.277 59.128 73.05" stroke="#050504" stroke-width="3" stroke-linecap="round" stroke-linejoin="round"/>
<path d="M42.2326 44.647C43.2108 45.559 44.6215 45.3391 45.5301 44.4711C47.2281 42.8407 47.8522 39.709 46.1396 37.8675C46.0207 37.7307 45.9331 37.5692 45.8829 37.3944C45.8327 37.2195 45.8213 37.0357 45.8493 36.8559C46.0003 35.592 47.4603 34.1669 48.7172 34.0379C50.6649 33.8327 52.363 34.5247 53.9769 35.5246C55.6721 36.5861 57.2685 37.7913 59.1553 38.4804C63.936 40.2398 68.6209 39.7823 73.0882 37.5039C77.6309 35.1903 79.3058 31.434 78.1534 26.4256C77.3348 22.8687 75.0591 20.432 71.9445 18.7518C70.0578 17.7313 67.9969 17.3149 65.875 17.1683C62.595 16.9455 59.4165 17.268 56.4906 18.9453C56.3915 19.0205 56.2756 19.07 56.1531 19.0894C56.0307 19.1089 55.9053 19.0976 55.7882 19.0567C53.5473 18.2152 51.2048 18.1976 48.8681 18.2767C46.0934 18.3695 43.3365 18.7627 40.6448 19.4497C36.5079 20.4516 32.6974 22.5162 29.5827 25.4433C26.5174 28.3522 24.3578 31.8445 22.8513 35.8061C20.6482 41.6355 20.8485 47.3887 23.1764 53.1067C24.3782 56.0596 26.0791 58.7456 27.603 61.5225C28.0762 62.3846 28.7641 63.1558 28.9789 64.1264C29.2348 65.4347 29.2662 66.7777 29.0718 68.0967C28.6596 71.1023 27.5305 73.8499 26.1285 76.5066C24.4014 79.7761 22.4566 82.9254 20.8427 86.2565C18.9182 90.2474 17.5713 94.3526 17.7281 98.8215C17.6753 100.277 17.7804 101.735 18.0416 103.167C18.7208 107.296 21.1591 110.381 24.0153 113.152C25.9021 114.979 28.2416 116.043 30.8279 116.515C33.3533 116.978 35.8786 117.442 38.4649 117.102C41.1528 116.756 43.2253 115.468 44.4444 112.982C44.9979 111.849 45.4873 110.686 45.9103 109.498C47.2775 105.686 46.8246 102.117 44.1948 98.9564C42.9786 97.4902 41.7043 96.0681 40.6942 94.4377C39.8611 93.0976 39.1906 91.6667 39.327 90.0568C39.413 88.4854 39.9709 86.9777 40.9264 85.7346C43.7942 82.1865 45.3733 78.7293 45.6665 74.2253C45.8435 71.4777 46.3138 68.0997 45.0598 65.6776C44.3545 64.314 43.2601 63.2027 41.7275 62.0474C40.1949 60.892 37.8002 58.5286 36.9671 57.2354C35.182 54.2416 34.9149 53.2622 34.3837 49.6554C34.1399 48.0075 34.5782 44.9842 36.5549 43.9315C38.4997 42.9551 40.6042 43.09 42.2326 44.647Z" fill="#050504"/>
<path d="M34.2501 54.6C32.6403 55.8581 32.0107 57.9753 32.0107 60.6C32.0107 64.5764 34.4839 67.8 37.5346 67.8C40.5853 67.8 43.0584 64.5764 43.0584 60.6C43.0584 57.2978 41.353 54.5149 39.0275 53.666" stroke="white" stroke-width="4" stroke-linecap="round" stroke-linejoin="round"/>
<path d="M64.8436 47.4161C64.5112 46.6573 63.6266 46.3116 62.8678 46.644C62.109 46.9765 61.7633 47.8611 62.0957 48.6199L64.8436 47.4161ZM63.586 54.6196C62.8297 54.9578 62.4907 55.845 62.8289 56.6012C63.167 57.3575 64.0542 57.6965 64.8105 57.3584L63.586 54.6196ZM49.134 40.5566C48.6003 41.1902 48.6813 42.1365 49.3149 42.6702C49.9484 43.2039 50.8947 43.123 51.4285 42.4894L49.134 40.5566ZM56.8173 38.703L57.0703 37.2244L57.0598 37.2227L56.8173 38.703ZM57.2775 40.3731C58.0541 40.6615 58.9174 40.2658 59.2058 39.4892C59.4942 38.7126 59.0984 37.8492 58.3218 37.5608L57.2775 40.3731ZM63.7886 38.5416C63.1776 39.101 63.1357 40.0498 63.6951 40.6609C64.2545 41.2719 65.2033 41.3138 65.8144 40.7544L63.7886 38.5416ZM70.8449 38.229L71.4759 36.8681L71.4741 36.8674L70.8449 38.229ZM70.7268 39.8975C71.3882 40.3964 72.3288 40.2647 72.8277 39.6033C73.3266 38.9419 73.1948 38.0014 72.5335 37.5025L70.7268 39.8975ZM63.4697 48.018C62.0957 48.6199 62.0957 48.6199 62.0957 48.6199C62.0957 48.6199 62.0958 48.62 62.0958 48.62C62.0958 48.6202 62.0959 48.6204 62.0961 48.6207C62.0964 48.6213 62.0968 48.6223 62.0974 48.6236C62.0985 48.6263 62.1003 48.6303 62.1026 48.6356C62.1073 48.6463 62.1143 48.6624 62.1235 48.6834C62.1418 48.7255 62.1689 48.7875 62.2034 48.8669C62.2723 49.0256 62.371 49.2535 62.4895 49.5292C62.7267 50.0812 63.0423 50.8224 63.3573 51.5829C63.6734 52.3463 63.9839 53.117 64.2134 53.7317C64.3288 54.0409 64.4175 54.2938 64.4752 54.479C64.5043 54.5723 64.5203 54.6318 64.5277 54.6631C64.5418 54.7233 64.5166 54.6445 64.5166 54.504H67.5166C67.5166 54.2795 67.4715 54.0765 67.4483 53.9777C67.4184 53.85 67.3797 53.7157 67.3391 53.5857C67.2576 53.3243 67.1473 53.0128 67.0239 52.6824C66.7759 52.018 66.4496 51.2092 66.129 50.4351C65.8072 49.6581 65.4861 48.9038 65.2457 48.3446C65.1255 48.0648 65.0252 47.8332 64.9549 47.6714C64.9197 47.5905 64.892 47.5269 64.8731 47.4835C64.8636 47.4618 64.8563 47.4451 64.8513 47.4337C64.8489 47.4281 64.847 47.4237 64.8457 47.4208C64.845 47.4193 64.8445 47.4182 64.8442 47.4174C64.844 47.417 64.8439 47.4167 64.8438 47.4165C64.8437 47.4164 64.8437 47.4163 64.8437 47.4162C64.8436 47.4162 64.8436 47.4161 63.4697 48.018ZM64.5166 54.504C64.5166 54.2483 64.6018 54.0762 64.6379 54.0135C64.6745 53.9497 64.698 53.9326 64.6711 53.9596C64.6142 54.0165 64.4931 54.1123 64.3062 54.2304C64.1307 54.3413 63.947 54.4409 63.8022 54.5145C63.7313 54.5506 63.6732 54.5787 63.6344 54.597C63.6151 54.6062 63.6008 54.6128 63.5924 54.6167C63.5882 54.6186 63.5855 54.6198 63.5844 54.6203C63.5839 54.6206 63.5837 54.6207 63.584 54.6205C63.5841 54.6205 63.5843 54.6204 63.5846 54.6202C63.5848 54.6202 63.585 54.6201 63.5852 54.62C63.5853 54.6199 63.5855 54.6198 63.5856 54.6198C63.5858 54.6197 63.586 54.6196 64.1982 55.989C64.8105 57.3584 64.8107 57.3583 64.8109 57.3582C64.811 57.3581 64.8112 57.358 64.8114 57.358C64.8117 57.3578 64.8121 57.3576 64.8125 57.3575C64.8132 57.3571 64.8141 57.3567 64.8151 57.3563C64.8171 57.3554 64.8196 57.3543 64.8225 57.353C64.8282 57.3503 64.8357 57.3469 64.8448 57.3427C64.8631 57.3344 64.8879 57.3229 64.9183 57.3085C64.979 57.2797 65.0629 57.2391 65.1624 57.1884C65.3586 57.0886 65.6295 56.9429 65.9087 56.7666C66.1764 56.5974 66.5098 56.3639 66.7939 56.0794C67.0175 55.8555 67.5166 55.3046 67.5166 54.504H64.5166ZM51.4285 42.4894C52.8952 40.7482 54.9025 39.9093 56.5748 40.1832L57.0598 37.2227C54.0801 36.7346 51.0891 38.2358 49.134 40.5566L51.4285 42.4894ZM56.5643 40.1815C56.8074 40.2231 57.0461 40.2872 57.2775 40.3731L58.3218 37.5608C57.916 37.4101 57.497 37.2975 57.0703 37.2245L56.5643 40.1815ZM65.8144 40.7544C67.347 39.3512 69.0387 39.0467 70.2156 39.5906L71.4741 36.8674C68.8471 35.6533 65.8868 36.6208 63.7886 38.5416L65.8144 40.7544ZM70.2139 39.5898C70.3951 39.6738 70.567 39.7769 70.7268 39.8975L72.5335 37.5025C72.2043 37.2542 71.8498 37.0415 71.4759 36.8681L70.2139 39.5898Z" fill="#050504"/>
<path d="M58.3428 59.4336C59.2331 61.5157 62.3136 62.016 63.7173 61.7799" stroke="#050504" stroke-width="3" stroke-miterlimit="10" stroke-linecap="round"/>
<path d="M56.6948 49.272C57.6248 49.272 58.3788 48.2378 58.3788 46.962C58.3788 45.6863 57.6248 44.652 56.6948 44.652C55.7647 44.652 55.0107 45.6863 55.0107 46.962C55.0107 48.2378 55.7647 49.272 56.6948 49.272Z" fill="#050504"/>
<path d="M57.8023 46.128C57.3514 44.412 55.0971 44.145 53.4668 45.573" stroke="#050504" stroke-width="3" stroke-linecap="round"/>
<path d="M69.8686 48.4381C70.7987 48.4381 71.5526 47.4038 71.5526 46.1281C71.5526 44.8523 70.7987 43.8181 69.8686 43.8181C68.9385 43.8181 68.1846 44.8523 68.1846 46.1281C68.1846 47.4038 68.9385 48.4381 69.8686 48.4381Z" fill="#050504"/>
<path d="M70.9761 45.294C70.5252 43.578 68.2709 43.311 66.6406 44.739" stroke="#050504" stroke-width="3" stroke-linecap="round"/>
</g>
<rect x="2.15918" y="1.5" width="99" height="99" rx="49.5" stroke="#050504" stroke-width="3"/>
<defs>
<clipPath id="clip0_7587_5028">
<rect x="0.65918" width="102" height="102" rx="51" fill="white"/>
</clipPath>
</defs>
</svg>
